<svg width="1439" height="322" fill="none" xmlns="http://www.w3.org/2000/svg"><path fill="#309" d="M0 0h1440v322H0z"/><path d="M879 103a29.98 29.98 0 00-5 59.55v-23.3h-7.24v-8.37H874v-6.18c0-7.17 4.38-11.08 10.77-11.08 3.07 0 5.7.23 6.47.33v7.5h-4.44c-3.48 0-4.15 1.65-4.15 4.07v5.35h8.3l-1.08 8.38h-7.22v23.5A30 30 0 00879 103zM724.74 133a5.74 5.74 0 11-11.48 0 5.74 5.74 0 0111.48 0z" fill="#fff"/><path d="M732.43 122.84a5.34 5.34 0 00-1.29-1.98 5.33 5.33 0 00-1.98-1.29 9.53 9.53 0 00-3.2-.6c-1.82-.07-2.36-.1-6.96-.1s-5.14.02-6.96.1c-1.68.09-2.6.36-3.2.6-.75.28-1.43.72-1.98 1.29a5.34 5.34 0 00-1.29 1.98c-.24.6-.52 1.52-.6 3.2-.08 1.82-.1 2.36-.1 6.96s.02 5.15.1 6.96c.08 1.68.37 2.6.6 3.2.28.75.72 1.43 1.29 1.98a5.34 5.34 0 001.98 1.29c.6.24 1.52.52 3.2.6 1.82.08 2.36.1 6.96.1s5.14-.02 6.96-.1a9.54 9.54 0 003.2-.6 5.7 5.7 0 003.27-3.27c.24-.6.52-1.52.6-3.2.08-1.81.1-2.36.1-6.96s-.02-5.14-.1-6.96a9.51 9.51 0 00-.6-3.2zm-13.43 19a8.85 8.85 0 110-17.68 8.85 8.85 0 010 17.69zm9.2-15.97a2.07 2.07 0 110-4.13 2.07 2.07 0 010 4.13z" fill="#fff"/><path d="M719 103a30 30 0 100 60 30 30 0 000-60zm17.12 37.1a12.65 12.65 0 01-.8 4.18 8.8 8.8 0 01-5.04 5.04c-1.1.43-2.34.72-4.18.8-1.83.09-2.42.1-7.1.1s-5.26-.01-7.1-.1a12.64 12.64 0 01-4.18-.8 8.46 8.46 0 01-3.06-1.98 8.45 8.45 0 01-1.98-3.06c-.43-1.1-.72-2.34-.8-4.18-.09-1.84-.1-2.42-.1-7.1s.01-5.27.1-7.1c.08-1.84.37-3.09.8-4.18a8.44 8.44 0 011.99-3.05 8.45 8.45 0 013.05-2c1.1-.42 2.34-.7 4.18-.8 1.84-.08 2.42-.1 7.1-.1s5.26.02 7.1.1c1.84.1 3.09.38 4.18.8a8.44 8.44 0 013.06 2c.87.86 1.55 1.9 1.98 3.05.43 1.1.72 2.34.8 4.18.09 1.83.1 2.42.1 7.1s-.01 5.26-.1 7.1zM559 103a30 30 0 100 60 30 30 0 000-60zm-8.72 45.35h-7.3v-21.98h7.3v21.98zm-3.65-24.98h-.05c-2.45 0-4.04-1.69-4.04-3.8 0-2.15 1.64-3.8 4.14-3.8s4.04 1.65 4.08 3.8c0 2.11-1.58 3.8-4.13 3.8zm30 24.98h-7.3V136.6c0-2.95-1.07-4.97-3.7-4.97-2.03 0-3.23 1.36-3.76 2.67a5 5 0 00-.24 1.79v12.27h-7.3s.1-19.92 0-21.98h7.3v3.11a7.25 7.25 0 016.59-3.63c4.8 0 8.4 3.15 8.4 9.9v12.6zM533.07 63.78l4.65 11.6 4.65-11.6h2.43V78h-1.87v-5.54l.17-5.97L538.43 78H537l-4.66-11.48.18 5.94V78h-1.87V63.78h2.42zm19.14 14.42c-1.43 0-2.6-.47-3.5-1.41a5.25 5.25 0 01-1.34-3.78v-.33c0-1.05.2-1.98.6-2.8.4-.83.96-1.48 1.67-1.94.73-.47 1.5-.7 2.35-.7 1.37 0 2.44.45 3.2 1.36.76.9 1.14 2.2 1.14 3.88v.75h-7.15a3.8 3.8 0 00.9 2.53 2.9 2.9 0 002.23.96c.64 0 1.18-.13 1.62-.39.44-.26.83-.6 1.16-1.04l1.1.86a4.44 4.44 0 01-3.98 2.05zm-.22-9.48a2.4 2.4 0 00-1.84.8c-.5.53-.8 1.27-.92 2.23h5.3v-.14a3.42 3.42 0 00-.75-2.13 2.26 2.26 0 00-1.8-.76zM567.07 78h-1.81v-4.51h-4.85V78h-1.82V67.43h1.82v4.58h4.85v-4.58h1.8V78zm10.98-10.57V78h-1.81v-4.11h-2.73L571.02 78h-1.95l2.65-4.38a3.2 3.2 0 01-1.56-1.15 3.13 3.13 0 01-.53-1.81c0-.97.36-1.74 1.08-2.33.72-.59 1.69-.89 2.9-.9h4.44zm-6.6 3.25c0 .51.17.93.52 1.25.35.3.82.47 1.4.47h2.87v-3.5h-2.6c-.67 0-1.2.16-1.6.5-.4.32-.6.75-.6 1.28zM592 75.6l3.6-8.18h2.25V78h-1.8v-7.69L592.61 78h-1.25l-3.48-7.85V78h-1.81V67.43h2.34l3.58 8.18zm8.28-3c0-1.03.2-1.96.6-2.78a4.6 4.6 0 011.7-1.92 4.65 4.65 0 012.5-.67c1.43 0 2.6.5 3.48 1.5.9.99 1.34 2.31 1.34 3.97v.12c0 1.03-.2 1.96-.6 2.78a4.45 4.45 0 01-4.2 2.59c-1.44 0-2.6-.5-3.5-1.5a5.73 5.73 0 01-1.32-3.95v-.13zm1.82.22c0 1.18.27 2.12.8 2.83a2.62 2.62 0 002.2 1.06 2.6 2.6 0 002.18-1.07c.54-.73.81-1.74.81-3.03 0-1.16-.27-2.1-.83-2.81a2.6 2.6 0 00-2.19-1.09c-.89 0-1.6.36-2.15 1.07a4.9 4.9 0 00-.82 3.04zm18.28.58h-1.27V78h-1.8v-4.59h-1.28L613.07 78h-2.28l3.78-5.47-3.42-5.1h2.19l2.72 4.38h1.24v-4.38h1.8v4.38h1.24l2.74-4.38h2.19l-3.43 5.11 3.78 5.46h-2.28l-2.96-4.59zM635.89 78h-1.8v-4.51h-4.86V78h-1.81V67.43h1.81v4.58h4.86v-4.58h1.8V78zm2.44-5.38c0-1.04.2-1.97.6-2.8a4.6 4.6 0 011.7-1.9 4.65 4.65 0 012.5-.68c1.43 0 2.6.5 3.48 1.5.89.99 1.34 2.31 1.34 3.97v.12c0 1.03-.2 1.96-.6 2.78a4.45 4.45 0 01-4.2 2.59c-1.44 0-2.6-.5-3.5-1.5a5.73 5.73 0 01-1.32-3.95v-.13zm1.81.21c0 1.18.27 2.12.81 2.83a2.62 2.62 0 002.2 1.06 2.6 2.6 0 002.18-1.07c.54-.73.8-1.74.8-3.03 0-1.16-.27-2.1-.82-2.81a2.6 2.6 0 00-2.19-1.09c-.9 0-1.61.36-2.16 1.07a4.9 4.9 0 00-.82 3.04zM663.8 78H662v-4.51h-4.86V78h-1.81V67.43h1.81v4.58H662v-4.58h1.8V78zm9.44 0a3.8 3.8 0 01-.26-1.11 4.03 4.03 0 01-3 1.3c-1.05 0-1.9-.29-2.57-.87-.67-.6-1-1.34-1-2.25 0-1.1.42-1.95 1.25-2.56a5.92 5.92 0 013.54-.92h1.75v-.83c0-.63-.18-1.13-.56-1.5-.38-.38-.94-.57-1.67-.57-.65 0-1.19.17-1.62.5-.44.32-.66.71-.66 1.17h-1.81c0-.52.18-1.03.55-1.52.38-.5.89-.89 1.53-1.17a5.16 5.16 0 012.12-.43c1.21 0 2.17.3 2.86.92.69.6 1.05 1.44 1.07 2.5v4.87c0 .97.13 1.74.37 2.31V78h-1.9zm-3-1.38c.57 0 1.1-.14 1.61-.44.5-.29.88-.67 1.1-1.14v-2.17h-1.41c-2.21 0-3.32.65-3.32 1.95 0 .56.19 1 .56 1.32.38.32.87.48 1.46.48zm14.19-9.19h1.8V78h-1.8v-7.7l-4.87 7.7h-1.81V67.43h1.8v7.72l4.88-7.72zm.49-3.84c0 .78-.27 1.42-.81 1.9s-1.24.71-2.11.71c-.87 0-1.58-.24-2.12-.72a2.42 2.42 0 01-.81-1.9h1.47c0 .46.13.82.37 1.08.25.25.61.38 1.09.38.45 0 .8-.13 1.06-.38s.4-.61.4-1.07h1.46zm12.07 5.3h-3.55V78h-1.8v-9.1h-3.48v-1.47h8.83v1.47zm8.6-1.46h1.8V78h-1.8v-7.7L700.7 78h-1.8V67.43h1.8v7.72l4.87-7.72zM715.41 78V67.43h4.12c1.4 0 2.48.25 3.23.75a2.4 2.4 0 011.13 2.15c0 .5-.14.94-.44 1.33-.29.4-.72.7-1.3.9.64.15 1.15.44 1.54.88.39.44.58.96.58 1.56 0 .97-.36 1.71-1.07 2.23-.71.51-1.72.77-3.02.77h-4.77zm1.8-4.64v3.18h3c.75 0 1.3-.14 1.68-.42.38-.27.57-.67.57-1.18 0-1.05-.78-1.58-2.33-1.58h-2.92zm0-1.44h2.34c1.69 0 2.54-.5 2.54-1.49s-.8-1.5-2.4-1.53h-2.48v3.02zm18.65 4.8c.65 0 1.21-.2 1.7-.59.48-.39.74-.87.8-1.46h1.7c-.03.6-.24 1.18-.62 1.73s-.9.98-1.54 1.3a4.4 4.4 0 01-2.03.5 4.37 4.37 0 01-3.44-1.44 5.77 5.77 0 01-1.27-3.95v-.3c0-1.03.19-1.94.56-2.74.38-.8.92-1.42 1.63-1.87a4.65 4.65 0 012.5-.66c1.19 0 2.17.35 2.95 1.06a3.8 3.8 0 011.26 2.77h-1.7a2.46 2.46 0 00-2.5-2.35c-.92 0-1.64.33-2.14 1-.5.66-.75 1.61-.75 2.86v.34c0 1.22.25 2.16.75 2.81.5.66 1.21 1 2.14 1zm5.76-4.1c0-1.04.2-1.97.6-2.8a4.6 4.6 0 011.7-1.9 4.65 4.65 0 012.5-.68c1.43 0 2.6.5 3.48 1.5.89.99 1.34 2.31 1.34 3.97v.12c0 1.03-.2 1.96-.6 2.78a4.44 4.44 0 01-4.2 2.59c-1.44 0-2.6-.5-3.5-1.5a5.73 5.73 0 01-1.32-3.95v-.13zm1.81.21c0 1.18.27 2.12.81 2.83a2.62 2.62 0 002.2 1.06 2.6 2.6 0 002.18-1.07c.54-.73.8-1.74.8-3.03 0-1.16-.27-2.1-.82-2.81a2.6 2.6 0 00-2.19-1.09c-.89 0-1.6.36-2.16 1.07a4.9 4.9 0 00-.82 3.04zm10.23-5.4h1.81v9.1h4.87v-9.1h1.8v9.1h1.26l-.17 4.6h-1.62V78h-7.95V67.43zm18.53 0h1.81V78h-1.8v-7.7l-4.88 7.7h-1.8V67.43h1.8v7.72l4.87-7.72zM783.43 78c-.1-.2-.18-.58-.25-1.11a4.03 4.03 0 01-3 1.3c-1.05 0-1.9-.29-2.58-.87-.66-.6-1-1.34-1-2.25 0-1.1.42-1.95 1.26-2.56a5.92 5.92 0 013.53-.92h1.76v-.83c0-.63-.19-1.13-.57-1.5-.37-.38-.93-.57-1.67-.57-.64 0-1.18.17-1.62.5-.43.32-.65.71-.65 1.17h-1.82c0-.52.19-1.03.56-1.52.38-.5.88-.89 1.52-1.17a5.16 5.16 0 012.12-.43c1.22 0 2.17.3 2.86.92.7.6 1.05 1.44 1.08 2.5v4.87c0 .97.12 1.74.37 2.31V78h-1.9zm-3-1.38c.57 0 1.1-.14 1.62-.44.5-.29.87-.67 1.1-1.14v-2.17h-1.42c-2.2 0-3.32.65-3.32 1.95 0 .56.2 1 .57 1.32.38.32.86.48 1.46.48zm16.02-9.19V78h-1.82v-9.07h-3.59l-.21 3.95c-.12 1.82-.43 3.12-.92 3.9-.49.78-1.27 1.19-2.34 1.22h-.72v-1.6l.52-.03c.59-.07 1-.4 1.26-1.02.25-.6.42-1.74.49-3.4l.2-4.52h7.13zm4.87 3.65h2.75c1.2 0 2.14.32 2.84.93.7.62 1.05 1.45 1.05 2.5s-.36 1.9-1.08 2.53c-.72.64-1.68.96-2.89.96h-4.47V67.43h1.8v3.65zm0 1.47v3.98h2.69c.68 0 1.2-.18 1.57-.52.37-.35.56-.83.56-1.44 0-.58-.18-1.06-.55-1.43a2.05 2.05 0 00-1.51-.59h-2.76zM818.84 78h-1.8v-4.51h-4.86V78h-1.81V67.43h1.81v4.58h4.86v-4.58h1.8V78zm4.89-6.92h2.74c1.2 0 2.15.32 2.84.93.7.62 1.05 1.45 1.05 2.5s-.36 1.9-1.08 2.53c-.71.64-1.68.96-2.89.96h-4.47V67.43h1.8v3.65zm10.4 6.92h-1.82V67.43h1.82V78zm-10.4-5.45v3.98h2.68c.68 0 1.2-.18 1.57-.52.38-.35.56-.83.56-1.44 0-.58-.18-1.06-.55-1.43a2.04 2.04 0 00-1.51-.59h-2.75zm17.1-1.26l2.34-3.86h2.1l-3.45 5.23L845.4 78h-2.1l-2.43-3.96L838.4 78h-2.1l3.57-5.34-3.46-5.23h2.1l2.3 3.86zm15.57 5.43c.65 0 1.21-.2 1.7-.59.47-.39.74-.87.8-1.46h1.7c-.03.6-.24 1.18-.62 1.73-.39.55-.9.98-1.55 1.3-.63.33-1.31.5-2.03.5a4.38 4.38 0 01-3.43-1.44 5.77 5.77 0 01-1.27-3.95v-.3c0-1.03.18-1.94.56-2.74a4.32 4.32 0 014.13-2.53c1.19 0 2.17.35 2.95 1.06a3.8 3.8 0 011.26 2.77h-1.7a2.47 2.47 0 00-2.5-2.35c-.92 0-1.64.33-2.15 1-.5.66-.75 1.61-.75 2.86v.34c0 1.22.25 2.16.75 2.81.5.66 1.22 1 2.15 1zm10.62 1.48c-1.43 0-2.6-.47-3.5-1.41a5.26 5.26 0 01-1.35-3.78v-.33c0-1.05.2-1.98.6-2.8.4-.83.96-1.48 1.68-1.94.72-.47 1.5-.7 2.34-.7 1.38 0 2.44.45 3.2 1.36.77.9 1.15 2.2 1.15 3.88v.75h-7.16a3.8 3.8 0 00.9 2.53 2.9 2.9 0 002.24.96c.63 0 1.17-.13 1.62-.39.44-.26.83-.6 1.16-1.04l1.1.86a4.44 4.44 0 01-3.98 2.05zm-.23-9.48a2.4 2.4 0 00-1.83.8c-.5.53-.8 1.27-.92 2.23h5.3v-.14a3.42 3.42 0 00-.75-2.13 2.26 2.26 0 00-1.8-.76zm14.18.18h-3.54V78h-1.8v-9.1h-3.49v-1.47h8.83v1.47zm9.84-1.47V78h-1.82v-4.11h-2.72l-2.5 4.11h-1.95l2.66-4.38a3.2 3.2 0 01-1.56-1.15 3.13 3.13 0 01-.54-1.81c0-.97.36-1.74 1.08-2.33.73-.59 1.7-.89 2.9-.9h4.45zm-6.61 3.25c0 .51.17.93.52 1.25.35.3.82.47 1.4.47h2.87v-3.5h-2.6c-.67 0-1.2.16-1.6.5-.4.32-.6.75-.6 1.28zm13.05.61l2.35-3.86h2.1l-3.45 5.23L901.8 78h-2.09l-2.44-3.96-2.44 3.96h-2.1l3.56-5.34-3.45-5.23h2.09l2.31 3.86zm6.32 5.76c0-.31.1-.57.27-.78.2-.2.47-.31.84-.31.38 0 .66.1.84.31.2.21.3.47.3.78 0 .3-.1.55-.3.75-.18.2-.47.3-.84.3s-.65-.1-.84-.3c-.18-.2-.27-.45-.27-.75zm.01-8.62c0-.31.1-.57.27-.78.2-.21.47-.31.84-.31s.65.1.84.3c.2.22.3.48.3.79 0 .3-.1.55-.3.75-.19.2-.47.3-.84.3s-.65-.1-.84-.3c-.18-.2-.27-.45-.27-.75zM617.5 257h-9.32v-1.3l4.92-5.47c.73-.82 1.23-1.5 1.5-2 .29-.53.43-1.07.43-1.62 0-.74-.23-1.35-.68-1.83a2.36 2.36 0 00-1.8-.71c-.9 0-1.6.26-2.1.77-.49.51-.74 1.22-.74 2.13h-1.8c0-1.3.42-2.37 1.26-3.17a4.7 4.7 0 013.39-1.21c1.32 0 2.36.34 3.13 1.04a3.53 3.53 0 011.15 2.77c0 1.4-.89 3.06-2.67 5l-3.81 4.13h7.14V257zm10.83-6.06c0 2.11-.36 3.68-1.09 4.71-.72 1.03-1.85 1.54-3.38 1.54-1.52 0-2.64-.5-3.37-1.5s-1.11-2.51-1.14-4.51v-2.41c0-2.1.37-3.65 1.09-4.66.72-1.02 1.85-1.52 3.4-1.52 1.53 0 2.65.49 3.38 1.47.72.98 1.09 2.49 1.1 4.53v2.35zm-1.8-2.47c0-1.53-.22-2.65-.65-3.34-.43-.7-1.11-1.06-2.04-1.06-.93 0-1.6.35-2.03 1.05-.42.7-.64 1.76-.65 3.2v2.9c0 1.53.22 2.67.66 3.4.45.74 1.13 1.1 2.03 1.1.9 0 1.56-.34 1.99-1.03.43-.7.66-1.78.68-3.27v-2.95zm13.43 8.53h-9.32v-1.3l4.92-5.47c.73-.82 1.24-1.5 1.5-2 .29-.53.43-1.07.43-1.62 0-.74-.23-1.35-.68-1.83a2.36 2.36 0 00-1.8-.71c-.9 0-1.6.26-2.1.77-.49.51-.73 1.22-.73 2.13h-1.81c0-1.3.42-2.37 1.26-3.17a4.7 4.7 0 013.39-1.21c1.32 0 2.36.34 3.13 1.04a3.53 3.53 0 011.15 2.77c0 1.4-.89 3.06-2.67 5l-3.81 4.13h7.14V257zm10.83-6.06c0 2.11-.36 3.68-1.08 4.71-.73 1.03-1.86 1.54-3.4 1.54-1.51 0-2.63-.5-3.36-1.5s-1.11-2.51-1.14-4.51v-2.41c0-2.1.37-3.65 1.09-4.66.72-1.02 1.85-1.52 3.4-1.52 1.53 0 2.65.49 3.38 1.47.72.98 1.09 2.49 1.1 4.53v2.35zm-1.8-2.47c0-1.53-.22-2.65-.65-3.34-.43-.7-1.11-1.06-2.04-1.06-.93 0-1.6.35-2.02 1.05-.43.7-.65 1.76-.66 3.2v2.9c0 1.53.22 2.67.66 3.4.45.74 1.13 1.1 2.04 1.1.89 0 1.55-.34 1.98-1.03.44-.7.66-1.78.68-3.27v-2.95zm23.78 2.7c0 1-.28 1.76-.85 2.29-.56.52-1.35.78-2.38.78a3.16 3.16 0 01-2.46-1.03 4.09 4.09 0 01-.92-2.81v-1.08c0-1.14.3-2.06.93-2.74a3.15 3.15 0 012.45-1.04c1.04 0 1.84.27 2.4.8.56.54.84 1.3.84 2.26h-1.42c0-.64-.16-1.1-.47-1.38-.3-.28-.76-.41-1.35-.41-.61 0-1.1.22-1.45.67a2.97 2.97 0 00-.52 1.87v1.1c0 .79.17 1.4.52 1.85.36.45.84.68 1.45.68.6 0 1.05-.14 1.35-.41.3-.28.46-.74.46-1.4h1.42zm-8.91-1.29c0 1.12.26 2.16.78 3.12.52.95 1.22 1.7 2.12 2.23a5.54 5.54 0 005.8 0c.9-.54 1.6-1.28 2.13-2.23.52-.96.78-2 .78-3.12 0-1.1-.26-2.13-.77-3.07a5.76 5.76 0 00-5.03-3.05 5.74 5.74 0 00-5.04 3.04 6.38 6.38 0 00-.77 3.08zm-1.13 0c0-1.31.3-2.53.91-3.66a6.85 6.85 0 016.03-3.63 6.78 6.78 0 016 3.63c.61 1.13.92 2.35.92 3.66 0 1.28-.3 2.49-.88 3.6a6.97 6.97 0 01-2.5 2.7 6.5 6.5 0 01-3.54 1.02 6.6 6.6 0 01-3.55-1 7.01 7.01 0 01-2.5-2.7 7.64 7.64 0 01-.89-3.62zm24.51 2.64l.28 1.87.4-1.69 2.81-9.92h1.58l2.75 9.92.39 1.72.3-1.91 2.2-9.73h1.9L696.38 257h-1.7l-2.93-10.36-.23-1.08-.22 1.08-3.04 10.36h-1.7l-3.45-14.22H685l2.24 9.74zm18.48 4.67c-1.43 0-2.6-.46-3.5-1.4a5.25 5.25 0 01-1.34-3.78v-.33c0-1.05.2-1.99.6-2.8.4-.83.96-1.48 1.67-1.94.73-.47 1.5-.7 2.35-.7 1.37 0 2.44.45 3.2 1.36.76.9 1.14 2.2 1.14 3.88v.75h-7.16c.03 1.05.33 1.89.91 2.53a2.9 2.9 0 002.23.96c.64 0 1.18-.13 1.62-.39.44-.26.83-.6 1.16-1.04l1.1.86a4.44 4.44 0 01-3.98 2.04zm-.22-9.47a2.4 2.4 0 00-1.84.8c-.5.53-.8 1.27-.92 2.23h5.3v-.14a3.42 3.42 0 00-.75-2.13 2.27 2.27 0 00-1.8-.76zm15.39 4.11a6.3 6.3 0 01-1.12 3.9 3.56 3.56 0 01-2.99 1.47 3.69 3.69 0 01-3.1-1.42l-.08 1.22h-1.66v-15h1.8v5.6a3.66 3.66 0 013.03-1.36c1.28 0 2.28.48 3.01 1.45.74.97 1.1 2.3 1.1 3.99v.15zm-1.81-.2c0-1.23-.24-2.18-.71-2.85-.48-.67-1.16-1-2.05-1-1.2 0-2.05.54-2.57 1.65V254c.55 1.1 1.41 1.66 2.59 1.66.86 0 1.54-.33 2.02-1 .48-.67.72-1.68.72-3.03zm15.3 5.37h-1.88v-6.57h-7.17V257h-1.88v-14.22h1.88v6.12h7.17v-6.12h1.88V257zm7.43.2c-1.43 0-2.6-.47-3.5-1.41a5.26 5.26 0 01-1.34-3.78v-.33c0-1.05.2-1.99.6-2.8a4.7 4.7 0 011.68-1.94c.72-.47 1.5-.7 2.34-.7 1.37 0 2.44.45 3.2 1.36.76.9 1.15 2.2 1.15 3.88v.75h-7.16c.02 1.05.33 1.89.9 2.53.6.64 1.33.96 2.23.96.64 0 1.18-.13 1.62-.39.45-.26.83-.6 1.17-1.04l1.1.86a4.44 4.44 0 01-3.99 2.04zm-.22-9.48a2.4 2.4 0 00-1.84.8c-.5.53-.8 1.27-.91 2.23h5.29v-.14a3.42 3.42 0 00-.74-2.13 2.27 2.27 0 00-1.8-.76zm11.55.34a5.37 5.37 0 00-.89-.07c-1.18 0-1.99.5-2.4 1.51v7.5h-1.82v-10.57h1.76l.03 1.22a2.81 2.81 0 012.52-1.41c.35 0 .62.04.8.13v1.69zm1 3.56c0-1.04.2-1.97.6-2.8a4.6 4.6 0 011.7-1.9 4.66 4.66 0 012.5-.68c1.43 0 2.6.5 3.48 1.5.9.99 1.34 2.31 1.34 3.97v.12c0 1.03-.2 1.96-.6 2.78a4.46 4.46 0 01-4.2 2.58c-1.44 0-2.6-.5-3.5-1.49a5.73 5.73 0 01-1.32-3.95v-.13zm1.82.21c0 1.18.26 2.12.8 2.83a2.62 2.62 0 002.2 1.06 2.6 2.6 0 002.18-1.07c.54-.73.81-1.74.81-3.03 0-1.16-.28-2.1-.83-2.81a2.6 2.6 0 00-2.19-1.09c-.89 0-1.6.36-2.15 1.07a4.91 4.91 0 00-.82 3.04zm19.5-1.17a8.92 8.92 0 01-3.52-1.7 3.28 3.28 0 01-1.1-2.5c0-1.12.45-2.04 1.35-2.77.9-.74 2.06-1.1 3.5-1.1.97 0 1.84.19 2.6.56.77.38 1.36.9 1.78 1.56.42.67.63 1.4.63 2.18h-1.88c0-.86-.28-1.53-.82-2.02a3.33 3.33 0 00-2.32-.74c-.92 0-1.64.2-2.17.61-.51.4-.77.97-.77 1.7 0 .57.25 1.06.74 1.47.49.4 1.33.76 2.5 1.1 1.19.32 2.11.7 2.78 1.1.67.4 1.16.86 1.48 1.4.33.53.49 1.15.49 1.88 0 1.15-.45 2.07-1.35 2.77-.9.69-2.1 1.03-3.6 1.03-.98 0-1.89-.18-2.74-.55-.84-.38-1.5-.9-1.96-1.54a3.77 3.77 0 01-.68-2.22h1.88c0 .86.32 1.54.95 2.04.64.5 1.49.74 2.55.74.99 0 1.75-.2 2.27-.6.53-.4.8-.96.8-1.65 0-.7-.25-1.24-.74-1.62a8.34 8.34 0 00-2.65-1.13zm11.64 5.06c.64 0 1.2-.2 1.69-.59.48-.39.75-.87.8-1.46h1.7c-.03.6-.23 1.18-.62 1.73a4.4 4.4 0 01-3.57 1.8 4.38 4.38 0 01-3.44-1.44 5.77 5.77 0 01-1.27-3.95v-.3c0-1.03.19-1.94.57-2.74.38-.8.91-1.43 1.62-1.87a4.65 4.65 0 012.5-.66c1.2 0 2.18.35 2.96 1.06a3.8 3.8 0 011.26 2.77h-1.71a2.46 2.46 0 00-2.5-2.35c-.92 0-1.63.34-2.14 1-.5.66-.75 1.61-.75 2.86v.34c0 1.22.25 2.16.75 2.81.5.66 1.22 1 2.15 1zm8.03-8a3.84 3.84 0 013.13-1.48c2.23 0 3.36 1.26 3.38 3.78V257h-1.8v-7c-.01-.75-.19-1.32-.54-1.68-.33-.37-.86-.55-1.59-.55-.58 0-1.1.16-1.54.47-.44.31-.79.72-1.03 1.23V257h-1.81v-15h1.8v5.71zm8.74 3.9c0-1.04.2-1.97.6-2.8.41-.82.98-1.46 1.7-1.9a4.65 4.65 0 012.49-.68c1.44 0 2.6.5 3.49 1.5.89.99 1.33 2.31 1.33 3.97v.12c0 1.03-.2 1.96-.6 2.78a4.45 4.45 0 01-4.2 2.58c-1.43 0-2.6-.5-3.49-1.49a5.73 5.73 0 01-1.33-3.95v-.13zm1.81.21c0 1.18.27 2.12.81 2.83a2.62 2.62 0 002.19 1.06 2.6 2.6 0 002.19-1.07c.54-.73.8-1.74.8-3.03 0-1.16-.27-2.1-.82-2.81a2.6 2.6 0 00-2.19-1.09c-.9 0-1.61.36-2.16 1.07a4.9 4.9 0 00-.82 3.04zm9.6-.21c0-1.04.2-1.97.6-2.8a4.6 4.6 0 011.7-1.9 4.65 4.65 0 012.49-.68c1.43 0 2.6.5 3.48 1.5.9.99 1.34 2.31 1.34 3.97v.12c0 1.03-.2 1.96-.6 2.78a4.45 4.45 0 01-4.2 2.58c-1.44 0-2.6-.5-3.49-1.49a5.73 5.73 0 01-1.33-3.95v-.13zm1.8.21c0 1.18.28 2.12.82 2.83a2.62 2.62 0 002.19 1.06 2.6 2.6 0 002.18-1.07c.54-.73.81-1.74.81-3.03 0-1.16-.27-2.1-.83-2.81a2.6 2.6 0 00-2.18-1.09c-.9 0-1.62.36-2.16 1.07a4.9 4.9 0 00-.82 3.04zm12.04 5.17h-1.8v-15h1.8v15z" fill="#fff"/></svg>