<svg width="320" height="208" fill="none" xmlns="http://www.w3.org/2000/svg"><path fill="#309" d="M0 0h320v208H0z"/><path d="M88.35 173h-6.52v-.9l3.44-3.84c.51-.58.86-1.04 1.06-1.4.2-.37.29-.75.29-1.13 0-.52-.16-.95-.47-1.28-.32-.33-.74-.5-1.26-.5-.63 0-1.12.18-1.47.54-.35.35-.52.85-.52 1.49h-1.26c0-.92.29-1.66.88-2.22a3.3 3.3 0 012.37-.85c.92 0 1.66.24 2.2.73.53.49.8 1.13.8 1.94 0 .98-.62 2.14-1.87 3.5l-2.67 2.89h5V173zm7.58-4.25c0 1.49-.25 2.59-.76 3.3-.5.73-1.3 1.09-2.37 1.09-1.06 0-1.85-.35-2.36-1.06a5.5 5.5 0 01-.8-3.15v-1.7c0-1.46.26-2.54.77-3.25.5-.71 1.3-1.07 2.38-1.07 1.07 0 1.85.34 2.36 1.03.5.69.77 1.74.78 3.17v1.64zm-1.27-1.72a4.6 4.6 0 00-.45-2.34c-.3-.5-.77-.74-1.42-.74-.65 0-1.12.24-1.42.73-.3.49-.45 1.24-.46 2.25v2.02c0 1.08.16 1.87.47 2.39.31.5.79.76 1.42.76.62 0 1.09-.24 1.39-.72.3-.48.46-1.24.48-2.28v-2.07zm9.41 5.97h-6.52v-.9l3.45-3.84c.5-.58.86-1.04 1.05-1.4.2-.37.3-.75.3-1.13 0-.52-.16-.95-.48-1.28-.31-.33-.73-.5-1.26-.5-.63 0-1.12.18-1.47.54-.34.35-.52.85-.52 1.49h-1.26c0-.92.3-1.66.88-2.22a3.3 3.3 0 012.37-.85c.93 0 1.66.24 2.2.73.53.49.8 1.13.8 1.94 0 .98-.62 2.14-1.87 3.5l-2.67 2.89h5V173zm7.58-4.25c0 1.49-.25 2.59-.76 3.3-.5.73-1.3 1.09-2.37 1.09-1.06 0-1.85-.35-2.36-1.06a5.5 5.5 0 01-.79-3.15v-1.7c0-1.46.25-2.54.76-3.25.5-.71 1.3-1.07 2.38-1.07 1.07 0 1.86.34 2.36 1.03.5.69.77 1.74.78 3.17v1.64zm-1.26-1.72c0-1.08-.15-1.85-.45-2.34-.3-.5-.78-.74-1.43-.74-.65 0-1.12.24-1.42.73-.3.49-.45 1.24-.45 2.25v2.02c0 1.08.15 1.87.46 2.39.31.5.79.76 1.42.76.63 0 1.09-.24 1.39-.72.3-.48.46-1.24.48-2.28v-2.07zm16.65 1.89c0 .7-.2 1.23-.6 1.6-.39.36-.94.54-1.66.54s-1.3-.23-1.72-.71a2.86 2.86 0 01-.65-1.97v-.75c0-.8.22-1.44.65-1.92.44-.49 1.01-.73 1.72-.73.73 0 1.29.19 1.68.56.4.38.59.9.59 1.58h-1c0-.45-.11-.77-.33-.96-.21-.2-.53-.3-.94-.3-.43 0-.77.16-1.01.47-.25.32-.37.76-.37 1.32v.77c0 .55.12.98.37 1.3.24.3.58.46 1 .46.43 0 .74-.1.95-.28.22-.2.32-.52.32-.98h1zm-6.24-.9c0 .78.18 1.5.55 2.18.36.66.86 1.18 1.48 1.56a3.89 3.89 0 004.07 0c.62-.38 1.11-.9 1.48-1.56.36-.67.55-1.4.55-2.18 0-.78-.18-1.5-.54-2.16a4.03 4.03 0 00-3.52-2.13 4.02 4.02 0 00-3.53 2.13 4.47 4.47 0 00-.54 2.16zm-.79 0c0-.92.21-1.78.64-2.57a4.8 4.8 0 016.66-1.86 4.74 4.74 0 011.76 1.86c.43.8.64 1.65.64 2.57 0 .9-.2 1.73-.61 2.52a4.9 4.9 0 01-1.75 1.9c-.75.47-1.58.7-2.48.7a4.6 4.6 0 01-2.48-.7 4.9 4.9 0 01-1.75-1.89 5.34 5.34 0 01-.63-2.53zm17.16 1.84l.2 1.31.27-1.18 1.97-6.94h1.1l1.93 6.94.27 1.2.22-1.34 1.54-6.8h1.32l-2.41 9.95h-1.2l-2.05-7.25-.16-.76-.16.76-2.12 7.25h-1.2l-2.4-9.95h1.3l1.58 6.81zm12.93 3.28c-1 0-1.81-.33-2.44-.99a3.68 3.68 0 01-.95-2.64v-.24c0-.73.14-1.38.42-1.96.28-.58.68-1.03 1.18-1.35.5-.33 1.05-.5 1.64-.5.96 0 1.7.32 2.24.96.53.63.8 1.54.8 2.72v.52h-5.01c.02.73.23 1.32.63 1.78.41.44.93.66 1.56.66.45 0 .83-.09 1.14-.27.3-.18.58-.42.81-.72l.77.6a3.1 3.1 0 01-2.79 1.43zm-.15-6.63c-.51 0-.94.18-1.29.56a2.7 2.7 0 00-.64 1.56h3.7v-.1a2.4 2.4 0 00-.51-1.5 1.58 1.58 0 00-1.26-.52zm10.77 2.87a4.4 4.4 0 01-.78 2.73 2.49 2.49 0 01-2.09 1.03c-.94 0-1.66-.33-2.17-1l-.06.86h-1.16v-10.5h1.26v3.92a2.56 2.56 0 012.12-.95c.9 0 1.6.34 2.1 1.02.52.67.78 1.6.78 2.78v.11zm-1.26-.14c0-.86-.17-1.53-.5-2-.34-.47-.81-.7-1.44-.7-.83 0-1.43.39-1.8 1.16v3.2c.4.78 1 1.16 1.81 1.16.61 0 1.08-.23 1.42-.7.34-.47.5-1.18.5-2.12zm10.7 3.76h-1.31v-4.6h-5.02v4.6h-1.31v-9.95h1.31v4.28h5.02v-4.28h1.32V173zm5.21.14c-1 0-1.82-.33-2.45-.99a3.68 3.68 0 01-.94-2.64v-.24c0-.73.14-1.38.42-1.96a3.3 3.3 0 011.17-1.35c.5-.33 1.06-.5 1.64-.5.96 0 1.71.32 2.25.96.53.63.8 1.54.8 2.72v.52h-5.02c.02.73.23 1.32.64 1.78.41.44.93.66 1.56.66.44 0 .82-.09 1.13-.27.31-.18.58-.42.82-.72l.77.6a3.1 3.1 0 01-2.79 1.43zm-.16-6.63c-.5 0-.94.18-1.28.56-.35.37-.56.89-.65 1.56H177v-.1a2.39 2.39 0 00-.52-1.5 1.58 1.58 0 00-1.26-.52zm8.09.23c-.2-.03-.4-.05-.62-.05-.83 0-1.4.35-1.7 1.06V173h-1.25v-7.4h1.23l.02.86c.41-.66 1-1 1.76-1 .25 0 .43.04.56.1v1.18zm.7 2.5c0-.73.14-1.38.42-1.96.29-.58.68-1.03 1.19-1.34.51-.32 1.1-.47 1.74-.47 1.01 0 1.82.34 2.44 1.04.63.7.94 1.63.94 2.78v.1a4.4 4.4 0 01-.42 1.94 3.1 3.1 0 01-2.94 1.8c-1 0-1.82-.34-2.44-1.04a4.01 4.01 0 01-.93-2.77v-.09zm1.27.14c0 .82.19 1.48.57 1.98.38.5.89.74 1.53.74s1.15-.25 1.53-.75c.38-.5.57-1.21.57-2.12 0-.8-.2-1.46-.59-1.97-.38-.5-.89-.75-1.53-.75-.62 0-1.12.24-1.5.74-.39.5-.58 1.2-.58 2.13zm13.65-.82a6.23 6.23 0 01-2.46-1.19 2.3 2.3 0 01-.77-1.75c0-.78.32-1.43.94-1.94a3.74 3.74 0 012.45-.77c.68 0 1.29.13 1.82.4.54.26.95.63 1.25 1.09.3.47.44.97.44 1.53h-1.32c0-.6-.19-1.08-.57-1.42a2.33 2.33 0 00-1.62-.52 2.4 2.4 0 00-1.52.43c-.36.28-.54.68-.54 1.18 0 .4.17.75.51 1.04.35.27.93.53 1.76.76.83.23 1.48.5 1.94.77a2.5 2.5 0 011.38 2.3c0 .8-.31 1.45-.94 1.94-.63.49-1.47.73-2.52.73-.69 0-1.33-.13-1.92-.4a3.27 3.27 0 01-1.37-1.07 2.64 2.64 0 01-.48-1.55h1.32c0 .6.22 1.07.66 1.42.45.35 1.04.52 1.79.52.69 0 1.22-.14 1.59-.42.37-.28.55-.67.55-1.16 0-.48-.17-.86-.51-1.12a5.86 5.86 0 00-1.86-.8zm8.15 3.54c.45 0 .84-.13 1.18-.4.34-.28.53-.62.56-1.03h1.2a2.3 2.3 0 01-.44 1.2 3.08 3.08 0 01-2.5 1.26c-1 0-1.81-.33-2.4-1-.6-.67-.9-1.6-.9-2.76v-.21c0-.72.14-1.36.4-1.92a3.02 3.02 0 012.9-1.77c.82 0 1.5.25 2.06.74.55.5.84 1.14.88 1.94h-1.2a1.72 1.72 0 00-1.75-1.64c-.64 0-1.14.23-1.5.7a3.26 3.26 0 00-.52 2v.23c0 .86.17 1.51.52 1.97.35.46.86.7 1.5.7zm5.62-5.6a2.69 2.69 0 012.2-1.03c1.56 0 2.34.88 2.36 2.64V173h-1.27v-4.9c0-.53-.13-.92-.37-1.18-.23-.25-.6-.38-1.11-.38-.41 0-.77.1-1.08.33-.31.22-.55.5-.73.86V173h-1.26v-10.5h1.26v4zm6.12 2.73c0-.72.14-1.37.42-1.95.29-.58.68-1.03 1.19-1.34.5-.32 1.09-.47 1.74-.47 1 0 1.82.34 2.44 1.04.63.7.94 1.63.94 2.78v.1a4.4 4.4 0 01-.42 1.94 3.11 3.11 0 01-1.18 1.33c-.51.32-1.1.48-1.76.48-1 0-1.82-.35-2.44-1.05a4.02 4.02 0 01-.93-2.77v-.09zm1.27.15c0 .82.19 1.48.56 1.98.39.5.9.74 1.54.74s1.15-.25 1.53-.75c.38-.5.56-1.21.56-2.12 0-.8-.19-1.46-.58-1.97-.38-.5-.89-.75-1.53-.75-.62 0-1.13.24-1.5.74-.4.5-.58 1.2-.58 2.13zm6.71-.15c0-.72.14-1.37.42-1.95.3-.58.69-1.03 1.2-1.34.5-.32 1.09-.47 1.74-.47 1 0 1.82.34 2.44 1.04.62.7.93 1.63.93 2.78v.1a4.4 4.4 0 01-.41 1.94 3.1 3.1 0 01-2.95 1.8c-1 0-1.82-.34-2.44-1.04a4.01 4.01 0 01-.93-2.77v-.09zm1.27.15c0 .82.2 1.48.57 1.98.38.5.9.74 1.53.74.64 0 1.15-.25 1.53-.75.38-.5.57-1.21.57-2.12 0-.8-.2-1.46-.58-1.97-.39-.5-.9-.75-1.53-.75s-1.13.24-1.51.74c-.39.5-.58 1.2-.58 2.13zm8.42 3.62h-1.26v-10.5h1.26V173zM164.85 95.5a3.35 3.35 0 11-6.7 0 3.35 3.35 0 016.7 0z" fill="#fff"/><path d="M169.33 89.57a3.11 3.11 0 00-.75-1.15c-.32-.34-.72-.6-1.15-.75-.36-.14-.89-.3-1.87-.35a69.77 69.77 0 00-4.06-.06c-2.68 0-3 .01-4.06.06-.98.05-1.51.2-1.87.35a3.1 3.1 0 00-1.15.75c-.34.32-.6.72-.75 1.15-.14.36-.3.89-.35 1.87a70.3 70.3 0 00-.06 4.06c0 2.68.01 3 .06 4.06.05.98.2 1.51.35 1.87.16.43.41.83.75 1.15.32.34.72.6 1.15.75.36.14.89.3 1.87.35 1.06.05 1.38.06 4.06.06 2.68 0 3-.01 4.06-.06.98-.05 1.51-.2 1.87-.35a3.33 3.33 0 001.9-1.9c.14-.36.3-.89.35-1.87.05-1.06.06-1.38.06-4.06 0-2.68-.01-3-.06-4.06a5.58 5.58 0 00-.35-1.87zm-7.83 11.09a5.16 5.16 0 110-10.32 5.16 5.16 0 010 10.32zm5.36-9.32a1.2 1.2 0 110-2.41 1.2 1.2 0 010 2.41z" fill="#fff"/><path d="M161.5 78a17.5 17.5 0 100 35 17.5 17.5 0 000-35zm9.99 21.64a7.34 7.34 0 01-.47 2.44 5.14 5.14 0 01-2.94 2.94c-.64.25-1.37.42-2.44.47-1.07.05-1.41.06-4.14.06-2.73 0-3.07-.01-4.14-.06a7.37 7.37 0 01-2.44-.47 4.92 4.92 0 01-1.78-1.16c-.51-.5-.9-1.1-1.16-1.78a7.39 7.39 0 01-.47-2.44 71 71 0 01-.06-4.14c0-2.73.01-3.07.06-4.14.05-1.07.22-1.8.47-2.44.25-.67.65-1.28 1.16-1.78.5-.51 1.1-.9 1.78-1.16a7.38 7.38 0 012.44-.47c1.07-.05 1.41-.06 4.14-.06 2.73 0 3.07.01 4.14.06 1.07.05 1.8.22 2.44.47.67.25 1.28.65 1.78 1.16.51.5.9 1.1 1.16 1.78.25.64.42 1.37.47 2.44.05 1.07.06 1.41.06 4.14 0 2.73-.01 3.07-.06 4.14zM47.5 78a17.5 17.5 0 100 35 17.5 17.5 0 000-35zm-5.09 26.45h-4.26V91.63h4.26v12.83zm-2.13-14.57h-.02c-1.43 0-2.36-.98-2.36-2.21 0-1.26.95-2.22 2.41-2.22 1.46 0 2.36.96 2.39 2.22 0 1.23-.93 2.21-2.42 2.21zm17.5 14.58h-4.26V97.6c0-1.73-.62-2.9-2.16-2.9-1.18 0-1.88.79-2.18 1.55-.12.28-.14.66-.14 1.04v7.16h-4.27s.06-11.61 0-12.82h4.27v1.82a4.23 4.23 0 013.84-2.12c2.8 0 4.9 1.83 4.9 5.77v7.36zM272.5 78a17.5 17.5 0 00-2.92 34.74V99.15h-4.22v-4.89h4.22v-3.6c0-4.19 2.56-6.47 6.29-6.47 1.79 0 3.32.14 3.77.2v4.37h-2.6c-2.02 0-2.41.96-2.41 2.38v3.12h4.84l-.63 4.89h-4.21v13.7A17.5 17.5 0 00272.5 78zM118.64 34.05l2.87 7.63 2.87-7.63h2.23V44h-1.72v-3.28l.17-4.39-2.94 7.67h-1.24l-2.93-7.66.17 4.38V44h-1.72v-9.95h2.24zm13.12 10.09c-1.05 0-1.9-.33-2.56-1a3.63 3.63 0 01-.98-2.65v-.2c0-.74.14-1.4.42-1.98a3.17 3.17 0 012.93-1.85c1 0 1.78.33 2.33.97.55.64.83 1.55.83 2.73v.67h-4.84c.05.6.26 1.1.61 1.45.36.35.81.53 1.35.53.77 0 1.39-.3 1.87-.92l.89.85a3 3 0 01-1.19 1.03c-.5.25-1.04.37-1.66.37zm-.2-6.34c-.45 0-.82.16-1.1.48a2.5 2.5 0 00-.54 1.33h3.17v-.12a2.01 2.01 0 00-.45-1.26 1.38 1.38 0 00-1.08-.43zM142.3 44h-1.66v-2.99h-2.88V44h-1.66v-7.4h1.66v3.09h2.88V36.6h1.66V44zm7.7-7.4V44h-1.66v-2.71h-1.55L145.2 44h-1.72l1.74-2.99a2.12 2.12 0 01-1.41-2.04c0-.69.26-1.25.79-1.69a3.32 3.32 0 012.15-.68h3.23zm-4.52 2.41c0 .31.11.56.34.76.23.19.53.29.89.29h1.63v-2.14h-1.53c-.4 0-.73.1-.97.31a.98.98 0 00-.36.78zm14.24 2.95l2.18-5.36h2.08V44h-1.66v-4.9l-2.04 4.9h-1.13l-2.04-4.92V44h-1.66v-7.4h2.1l2.17 5.36zm5.82-1.73c0-.72.14-1.37.43-1.95.29-.59.69-1.03 1.21-1.34a3.39 3.39 0 011.8-.47c.99 0 1.8.32 2.42.96.62.64.96 1.5 1 2.56l.02.39c0 .73-.15 1.38-.43 1.95a3.08 3.08 0 01-1.2 1.34c-.52.3-1.12.47-1.8.47a3.22 3.22 0 01-2.51-1.04 4.01 4.01 0 01-.94-2.78v-.09zm1.66.15a3 3 0 00.47 1.79c.32.43.75.64 1.31.64s1-.22 1.31-.66c.31-.43.47-1.07.47-1.92 0-.74-.16-1.34-.48-1.77a1.53 1.53 0 00-1.3-.66c-.55 0-.98.22-1.3.65a3.21 3.21 0 00-.48 1.93zm12.98.65h-.88V44h-1.66v-2.97h-.88l-1.7 2.97h-2.04l2.46-3.85-2.32-3.55h2.03l1.67 2.9h.78v-2.9h1.66v2.9h.79l1.68-2.9h2.03l-2.32 3.53 2.47 3.87h-2.07l-1.7-2.97zM191.23 44h-1.66v-2.99h-2.88V44h-1.66v-7.4h1.66v3.09h2.88V36.6h1.66V44zm1.47-3.77c0-.72.14-1.37.43-1.95.28-.59.69-1.03 1.2-1.34a3.39 3.39 0 011.8-.47c1 0 1.8.32 2.42.96.63.64.96 1.5 1.01 2.56l.01.39c0 .73-.14 1.38-.42 1.95a3.08 3.08 0 01-1.2 1.34c-.52.3-1.13.47-1.8.47a3.22 3.22 0 01-2.52-1.04 4.01 4.01 0 01-.94-2.78v-.09zm1.66.15a3 3 0 00.47 1.79c.31.43.75.64 1.31.64s1-.22 1.3-.66c.32-.43.48-1.07.48-1.92 0-.74-.16-1.34-.49-1.77a1.53 1.53 0 00-1.3-.66c-.54 0-.98.22-1.3.65a3.21 3.21 0 00-.47 1.93zM77.24 60h-1.66v-2.99H72.7V60h-1.66v-7.4h1.66v3.09h2.88V52.6h1.66V60zm6.19 0a2.56 2.56 0 01-.2-.69c-.52.55-1.17.83-1.93.83-.75 0-1.35-.22-1.82-.64-.47-.42-.7-.95-.7-1.57 0-.79.29-1.4.87-1.81a4.26 4.26 0 012.52-.64h1.01V55c0-.39-.1-.7-.32-.92-.21-.23-.54-.35-.98-.35-.37 0-.68.1-.92.29a.87.87 0 00-.37.72h-1.66c0-.4.14-.79.4-1.14.27-.35.64-.63 1.1-.83.46-.2.98-.3 1.55-.3.87 0 1.56.22 2.07.65.52.44.78 1.05.8 1.84v3.33c0 .67.09 1.2.28 1.6V60h-1.7zm-1.83-1.2c.33 0 .64-.08.93-.24.29-.16.5-.37.65-.64v-1.4h-.9c-.6 0-1.07.11-1.38.33-.3.21-.46.52-.46.9 0 .33.1.58.31.77.21.19.5.28.85.28zm9.6-6.2h1.66V60H91.2v-4.94L88.3 60h-1.65v-7.4h1.65v4.94l2.9-4.94zm.78-2.83c0 .57-.2 1.04-.6 1.4-.4.35-.94.52-1.6.52-.68 0-1.21-.17-1.61-.53-.4-.35-.6-.82-.6-1.4h1.24c0 .3.08.54.25.71a1 1 0 00.71.25c.3 0 .54-.09.7-.25.18-.17.26-.4.26-.7h1.25zm8.46 4.15h-2.4V60h-1.66v-6.08h-2.37V52.6h6.43v1.32zm5.73-1.32h1.66V60h-1.66v-4.94l-2.9 4.94h-1.65v-7.4h1.65v4.94l2.9-4.94zm7.04 7.4v-7.4h3c1.01 0 1.78.18 2.3.54.54.35.8.85.8 1.51 0 .35-.1.65-.32.93-.2.27-.52.47-.94.62.49.1.87.3 1.15.6.28.31.43.67.43 1.09a1.8 1.8 0 01-.77 1.57c-.5.36-1.23.54-2.19.54h-3.46zm1.66-3.15v1.84h1.82c.85 0 1.28-.3 1.28-.92 0-.61-.44-.92-1.3-.92h-1.8zm0-1.2h1.36c.95 0 1.42-.27 1.42-.82 0-.59-.45-.89-1.34-.9h-1.44v1.73zm12.72 3.16c.41 0 .76-.12 1.03-.36.28-.24.42-.54.44-.9h1.56c-.01.46-.16.9-.43 1.3-.26.4-.63.7-1.09.94-.46.23-.96.35-1.49.35a3.16 3.16 0 01-2.46-1c-.6-.68-.91-1.6-.91-2.78v-.17c0-1.13.3-2.03.9-2.7a3.12 3.12 0 012.46-1.02c.88 0 1.6.25 2.15.77.56.51.85 1.18.88 2.02h-1.57a1.52 1.52 0 00-.44-1.05 1.39 1.39 0 00-1.03-.41c-.54 0-.95.2-1.24.59-.3.39-.44.98-.45 1.77v.26c0 .8.14 1.4.43 1.8.3.4.71.59 1.26.59zm3.98-2.58c0-.72.14-1.37.43-1.95.29-.59.69-1.03 1.2-1.34a3.4 3.4 0 011.8-.47c1 0 1.8.32 2.43.96.62.64.96 1.5 1 2.56l.01.39c0 .73-.14 1.38-.42 1.95a3.08 3.08 0 01-1.2 1.34c-.52.3-1.12.47-1.8.47a3.22 3.22 0 01-2.52-1.04 4.02 4.02 0 01-.93-2.78v-.09zm1.66.15a3 3 0 00.47 1.79c.32.43.75.64 1.31.64s1-.22 1.3-.66c.32-.43.48-1.07.48-1.92 0-.74-.16-1.34-.48-1.77a1.53 1.53 0 00-1.31-.66c-.54 0-.97.22-1.3.65a3.21 3.21 0 00-.47 1.93zm6.69-3.78h1.66v6.07h2.88V52.6h1.66v6.07h1L147 62.2h-1.51V60h-5.56v-7.4zm13 0h1.65V60h-1.65v-4.94l-2.9 4.94h-1.66v-7.4h1.66v4.94l2.9-4.94zm7.84 7.4a2.57 2.57 0 01-.2-.69c-.52.55-1.17.83-1.94.83a2.6 2.6 0 01-1.81-.64c-.47-.42-.7-.95-.7-1.57 0-.79.28-1.4.87-1.81a4.25 4.25 0 012.51-.64h1.02V55c0-.39-.1-.7-.32-.92-.21-.23-.54-.35-.98-.35-.38 0-.69.1-.93.29a.87.87 0 00-.36.72h-1.66c0-.4.13-.79.4-1.14.27-.35.64-.63 1.1-.83.46-.2.98-.3 1.55-.3.86 0 1.56.22 2.07.65.52.44.78 1.05.8 1.84v3.33c0 .67.09 1.2.27 1.6V60h-1.7zm-1.83-1.2c.33 0 .64-.08.92-.24.3-.16.52-.37.66-.64v-1.4h-.9c-.6 0-1.07.11-1.38.33-.31.21-.47.52-.47.9 0 .33.1.58.32.77.21.19.5.28.85.28zm11.27-6.2V60h-1.66v-6.06h-2.1l-.13 2.58a5.33 5.33 0 01-.72 2.67c-.39.54-.98.81-1.78.81h-.52v-1.38l.34-.03c.36-.06.63-.28.8-.67.16-.4.27-1.11.31-2.16l.14-3.16h5.32zm3.55 2.36h1.63c.6 0 1.13.1 1.59.3a2.3 2.3 0 011.38 2.21 2.3 2.3 0 01-.81 1.83c-.54.46-1.25.7-2.15.7h-3.3v-7.4h1.66v2.36zm0 1.33v2.38h1.62c.4 0 .73-.1.96-.3.24-.2.36-.5.36-.87s-.12-.66-.35-.88a1.31 1.31 0 00-.93-.33h-1.66zm12.2 3.71h-1.67v-2.99h-2.88V60h-1.66v-7.4h1.66v3.09h2.88V52.6h1.66V60zm3.55-5.04h1.63c.6 0 1.13.1 1.59.3a2.3 2.3 0 011.38 2.21 2.3 2.3 0 01-.81 1.83c-.54.46-1.25.7-2.15.7h-3.3v-7.4h1.66v2.36zM197 60h-1.66v-7.4h1.66V60zm-7.49-3.71v2.38h1.62c.4 0 .73-.1.96-.3.24-.2.36-.5.36-.87s-.12-.66-.35-.88a1.31 1.31 0 00-.93-.33h-1.66zm12.14-1.25l1.4-2.44h1.85l-2.26 3.65 2.34 3.75h-1.84l-1.47-2.53-1.47 2.53h-1.85l2.34-3.75-2.26-3.65h1.84l1.38 2.44zm10.9 3.77c.42 0 .77-.12 1.04-.36s.42-.54.44-.9h1.56c-.02.46-.16.9-.43 1.3s-.63.7-1.1.94c-.45.23-.95.35-1.48.35a3.16 3.16 0 01-2.46-1c-.61-.68-.91-1.6-.91-2.78v-.17c0-1.13.3-2.03.9-2.7a3.12 3.12 0 012.46-1.02c.88 0 1.6.25 2.15.77.55.51.84 1.18.87 2.02h-1.56a1.52 1.52 0 00-.44-1.05 1.39 1.39 0 00-1.03-.41c-.54 0-.96.2-1.25.59-.29.39-.44.98-.44 1.77v.26c0 .8.14 1.4.43 1.8.3.4.71.59 1.26.59zm7.55 1.33c-1.05 0-1.9-.33-2.56-1a3.63 3.63 0 01-.98-2.65v-.2c0-.74.14-1.4.43-1.98a3.17 3.17 0 012.92-1.85c1.01 0 1.79.33 2.33.97.56.64.83 1.55.83 2.73v.67h-4.83c.05.6.25 1.1.6 1.45.37.35.82.53 1.36.53.76 0 1.38-.3 1.86-.92l.9.85a3 3 0 01-1.2 1.03c-.49.25-1.04.37-1.66.37zm-.2-6.34c-.45 0-.82.16-1.1.48a2.5 2.5 0 00-.53 1.33h3.16v-.12a2.01 2.01 0 00-.44-1.26 1.38 1.38 0 00-1.08-.43zm10.2.12h-2.4V60h-1.66v-6.08h-2.37V52.6h6.44v1.32zm7.04-1.32V60h-1.66v-2.71h-1.55L232.34 60h-1.72l1.74-2.99a2.12 2.12 0 01-1.41-2.04c0-.69.26-1.25.8-1.69a3.32 3.32 0 012.15-.68h3.23zm-4.52 2.41c0 .31.11.56.34.76.24.19.53.29.9.29h1.63v-2.14h-1.54c-.4 0-.73.1-.97.31a.98.98 0 00-.36.78zm9.02.03l1.4-2.44h1.85l-2.26 3.65 2.34 3.75h-1.84l-1.47-2.53-1.47 2.53h-1.85l2.34-3.75-2.26-3.65h1.84l1.38 2.44zm5.38 3.21c.31 0 .55.09.72.27.17.17.25.39.25.65a.9.9 0 01-.25.65c-.17.17-.4.26-.72.26a.96.96 0 01-.7-.26.86.86 0 01-.26-.65.9.9 0 01.25-.65c.17-.18.4-.27.71-.27zm0-5.8c.31 0 .55.09.72.26.17.18.25.4.25.66a.9.9 0 01-.25.65c-.17.17-.4.25-.72.25a.96.96 0 01-.7-.25.86.86 0 01-.26-.65.9.9 0 01.25-.66c.17-.17.4-.26.71-.26z" fill="#fff"/></svg>