<svg width="85" height="81" fill="none" xmlns="http://www.w3.org/2000/svg"><path d="M62.59.66a22.44 22.44 0 00-22.41 22.4 22.44 22.44 0 0022.4 22.42A22.44 22.44 0 0085 23.07 22.44 22.44 0 0062.59.66zm0 34.86c-3.01 0-5.71-1.8-6.89-4.56l4.6-1.94a2.49 2.49 0 102.29-3.46 7.48 7.48 0 116.88-10.38l-4.59 1.94a2.49 2.49 0 10-2.3 3.46 7.48 7.48 0 010 14.94z" fill="#FFDA45"/><path d="M74.71 47.63a27.43 27.43 0 01-39.4-22.07h-5.26c-3.5 0-6.86.7-10 2.1a17.27 17.27 0 00-8.24-2.1H4.18l4.27 12.79c-.43.74-.8 1.45-1.12 2.15H0v19.92h7.32a24.97 24.97 0 009.24 10.87 7.69 7.69 0 013.53 6.48v2.57h14.94v-4.98h14.94v4.98h14.94v-2.49a17.8 17.8 0 014.15-11.41 24.83 24.83 0 005.65-18.81zm-49.64-2.15h-4.98V40.5h4.98v4.98z" fill="#FFDA45"/></svg>