<svg width="55" height="53" fill="none" xmlns="http://www.w3.org/2000/svg"><path d="M40.5.72c-8 0-14.5 6.5-14.5 14.5s6.5 14.5 14.5 14.5S55 23.22 55 15.22 48.5.72 40.5.72zm0 22.56a4.83 4.83 0 01-4.46-2.95l2.97-1.26a1.61 1.61 0 101.49-2.24 4.84 4.84 0 114.45-6.71l-2.97 1.25a1.61 1.61 0 10-1.48 2.24 4.84 4.84 0 010 9.67z" fill="#FFDA45"/><path d="M48.34 31.11a17.75 17.75 0 01-25.5-14.28h-3.4c-2.26 0-4.43.46-6.47 1.37a11.17 11.17 0 00-5.33-1.37H2.71l2.75 8.28c-.27.48-.5.94-.71 1.39H0v12.9h4.74a16.16 16.16 0 005.98 7.02 4.97 4.97 0 012.28 4.2v1.66h9.67v-3.22h9.66v3.22H42v-1.61c0-2.7.96-5.32 2.69-7.39a16.07 16.07 0 003.65-12.17zm-32.12-1.39H13V26.5h3.22v3.22z" fill="#FFDA45"/></svg>