<svg width="85" height="85" fill="none" xmlns="http://www.w3.org/2000/svg"><g clip-path="url(#clip0)" fill="#FFDA45"><path d="M56.1 59.57l3.88-6.3 7.02-2.4.78-7.37 5.27-5.2-2.5-6.97 2.5-6.97-5.27-5.2L67 11.8l-7.02-2.4-3.88-6.3-7.35.89L42.5 0l-6.25 3.99-7.35-.9-3.88 6.32L18 11.8l-.78 7.36-5.27 5.2 2.5 6.97-2.5 6.98 5.27 5.2.78 7.36 7.02 2.4 3.88 6.3 7.35-.89 6.25 3.99 6.25-3.99 7.35.89zM21 31.33A21.51 21.51 0 0142.5 9.85a21.51 21.51 0 0121.49 21.48 21.51 21.51 0 01-21.49 21.5 21.51 21.51 0 01-21.49-21.5z"/><path d="M42.5 14.83c-9.1 0-16.5 7.4-16.5 16.5s7.4 16.5 16.5 16.5S59 40.44 59 31.34s-7.4-16.5-16.5-16.5zM35.08 63.84l-8.75 1.06-4.62-7.5-1.57-.53-6.77 21.17 12.2-.67L35.1 85l5.61-17.55-5.64-3.6zM63.29 57.4l-4.62 7.5-8.75-1.06-5.64 3.6L49.89 85l9.55-7.63 12.2.67-6.78-21.17-1.57.53z"/></g><defs><clipPath id="clip0"><path fill="#fff" d="M0 0h85v85H0z"/></clipPath></defs></svg>