<svg width="175" height="175" fill="none" xmlns="http://www.w3.org/2000/svg"><path d="M175 87.5a87.24 87.24 0 01-27.5 63.69 87.08 87.08 0 01-60 23.81 87.08 87.08 0 01-62.22-25.98A87.21 87.21 0 010 87.5a87.21 87.21 0 0125.28-61.52A87.07 87.07 0 0187.5 0a87.07 87.07 0 0159.44 23.29 87.62 87.62 0 0121.91 31.93A87.26 87.26 0 01175 87.5z" fill="#FFDA45"/><path d="M133.66 79.63c-2.44-7.06-12.42-7.06-14.37-1.22-1.95 5.85 4.63 9.26 14.86 12.67 10.23 3.4 16.56 12.42 15.34 20.45-1.22 8.04-4.63 18.51-24.84 18.51-12.64 0-19.66-7.9-23.15-13.82l11.46-6.88s3.9 8.28 11.2 8.28c7.3 0 10.23-2.43 10.23-8.04 0-6.81-23.62-9.25-27.28-20.94-3.65-11.7 1.22-28.25 18.27-27.03 10.65.76 16.65 5.99 19.65 9.8l-11.37 8.22zM80.57 62.82v46.76c0 5.6-4.87 8.53-9.75 7.56-4.87-.98-7.06-6.82-7.06-6.82l-11.2 7.55s2.43 11.2 17.78 12.17c15.34.98 24.1-8.28 24.1-16.07V62.82H80.58z" fill="#309"/><path d="M25.28 15.45v133.57a87.52 87.52 0 0011.8 10h100.83c3.38-2.38 6.58-5 9.59-7.83H33.12V23.29h127.9v111.68a87 87 0 007.83-15.2V15.46H25.28z" fill="#309"/><path d="M30.03 129.8a13.88 13.88 0 100-27.76 13.88 13.88 0 000 27.76z" fill="#3F4A43"/></svg>