<svg width="175" height="175" fill="none" xmlns="http://www.w3.org/2000/svg"><path d="M87.5 175a87.5 87.5 0 100-175 87.5 87.5 0 000 175z" fill="#FFDA45"/><path d="M71 112.38h33.02v14.63H71v-14.63z" fill="#2F4859"/><path d="M131.66 46.1H43.34a3.4 3.4 0 00-3.4 3.4v62.64a3.4 3.4 0 003.4 3.39h88.32a3.4 3.4 0 003.4-3.4V49.5a3.4 3.4 0 00-3.4-3.39z" fill="#3A556A"/><path d="M45.77 51.93h83.46v51.93H45.77V51.93z" fill="#309"/><path d="M110.25 125.11h-45.5a1.9 1.9 0 00-1.24 3.18c.32.35.77.57 1.24.6h45.5a1.9 1.9 0 000-3.78z" fill="#3A556A"/><path d="M87.5 106.97a2.73 2.73 0 100 5.46 2.73 2.73 0 000-5.46z" fill="#2F4859"/><path d="M64.13 64.59h-.8v-5.16a4.64 4.64 0 01-1.63.97v-.78c.43-.2.83-.45 1.2-.76.28-.25.53-.55.72-.88h.51v6.6zM67.7 61.33c-.01-.63.06-1.26.24-1.87.12-.43.37-.8.7-1.1.35-.26.78-.4 1.21-.38.32 0 .64.07.93.2.26.16.49.37.66.62.18.3.32.64.4.99.11.5.16 1.02.14 1.54a5.9 5.9 0 01-.23 1.88c-.11.4-.34.77-.66 1.05a1.8 1.8 0 01-1.19.4 1.83 1.83 0 01-1.5-.69 4.4 4.4 0 01-.7-2.64zm.84 0c-.07.74.06 1.49.37 2.16a1.12 1.12 0 00.94.54 1.1 1.1 0 00.93-.54 4.1 4.1 0 00.38-2.16 4 4 0 00-.38-2.14 1.1 1.1 0 00-1.45-.43c-.16.09-.29.2-.38.36a4.2 4.2 0 00-.41 2.21zM77.93 64.59h-.8v-5.16a4.64 4.64 0 01-1.62.97v-.78c.43-.2.82-.45 1.18-.76.29-.25.53-.55.72-.88h.52v6.6zM84.9 64.59h-.8v-5.16a4.72 4.72 0 01-1.61.97v-.78c.42-.2.83-.45 1.18-.76.3-.25.53-.54.71-.88h.52v6.6zM88.47 61.33c-.02-.63.06-1.26.25-1.87.13-.43.37-.8.7-1.1.35-.26.77-.4 1.2-.38.32 0 .64.06.93.2.27.16.5.37.67.62.18.31.31.64.4.99.11.5.16 1.02.14 1.54.02.63-.06 1.27-.23 1.88-.12.42-.37.8-.71 1.09a2 2 0 01-2.73-.29 4.3 4.3 0 01-.62-2.68zm.83 0a4.1 4.1 0 00.39 2.16 1.1 1.1 0 00.93.54 1.15 1.15 0 00.94-.54 4.2 4.2 0 00.38-2.16 4.1 4.1 0 00-.34-2.14 1.12 1.12 0 00-.94-.55 1.04 1.04 0 00-.9.48 4.1 4.1 0 00-.46 2.21zM98.77 64.59h-.82v-5.16a4.72 4.72 0 01-1.61.97v-.78c.42-.2.83-.45 1.18-.76.3-.25.53-.54.71-.88h.54v6.6zM102.33 61.33a5.9 5.9 0 01.2-1.87c.14-.43.38-.8.72-1.1.34-.26.77-.4 1.2-.38.32 0 .63.07.92.2.27.16.5.37.67.62.18.31.32.64.4.99.11.5.16 1.02.15 1.54a5.9 5.9 0 01-.24 1.88c-.12.42-.37.8-.7 1.09a1.8 1.8 0 01-1.2.4 1.83 1.83 0 01-1.5-.69c-.5-.8-.7-1.74-.62-2.68zm.82 0a4.2 4.2 0 00.39 2.16 1.1 1.1 0 001.87 0 4.2 4.2 0 00.38-2.16 4.1 4.1 0 00-.38-2.14 1.13 1.13 0 00-.94-.55 1.04 1.04 0 00-.9.48 4.1 4.1 0 00-.42 2.21zM112.61 64.59h-.8v-5.16a4.6 4.6 0 01-1.63.97v-.78c.43-.2.83-.45 1.2-.76.28-.25.53-.55.72-.88h.52v6.6zM64.13 75.6h-.8v-5.14c-.24.21-.5.4-.77.55-.27.17-.56.31-.86.43v-.78c.43-.2.83-.47 1.2-.78.28-.25.53-.54.72-.88h.51v6.6zM67.8 72.37c-.02-.64.06-1.28.23-1.9.14-.42.39-.8.73-1.09.33-.26.76-.4 1.19-.38.32 0 .64.07.92.22.27.15.5.36.66.62.2.3.33.62.41.97.11.5.16 1.03.15 1.56.02.62-.06 1.25-.24 1.85a2.3 2.3 0 01-.72 1.11 2.01 2.01 0 01-2.73-.3 4.39 4.39 0 01-.6-2.66zm.83 0c-.07.73.06 1.47.37 2.14a1.12 1.12 0 00.95.55 1.1 1.1 0 00.92-.55 4 4 0 00.39-2.14 4.1 4.1 0 00-.39-2.16 1.1 1.1 0 00-1.44-.42c-.16.08-.3.2-.39.35a4.3 4.3 0 00-.4 2.23zM74.83 72.37a6 6 0 01.23-1.9c.13-.41.38-.8.7-1.09.35-.26.77-.4 1.2-.38a1.83 1.83 0 011.6.84c.18.3.31.62.4.97.11.5.16 1.03.15 1.56.01.62-.07 1.25-.24 1.85a2.4 2.4 0 01-.7 1.11c-.35.27-.78.4-1.21.39a1.8 1.8 0 01-1.5-.69 4.3 4.3 0 01-.63-2.66zm.82 0a4.1 4.1 0 00.38 2.14 1.1 1.1 0 00.93.55 1.1 1.1 0 00.94-.55 4.1 4.1 0 00.39-2.14 4.2 4.2 0 00-.36-2.16 1.15 1.15 0 00-.94-.54 1.03 1.03 0 00-.9.47 4.1 4.1 0 00-.44 2.23zM81.84 72.37c-.04-.64.03-1.28.2-1.9.12-.41.37-.8.7-1.09.34-.26.76-.4 1.2-.38a1.83 1.83 0 011.58.84c.19.3.33.62.4.97a6.64 6.64 0 01-.02 3.41 2.4 2.4 0 01-.71 1.11c-.34.27-.77.4-1.2.39a1.76 1.76 0 01-1.5-.69 4.3 4.3 0 01-.65-2.66zm.83 0a4 4 0 00.39 2.14 1.1 1.1 0 00.93.55 1.12 1.12 0 00.94-.55c.31-.67.44-1.4.37-2.14a4.24 4.24 0 00-.37-2.16 1.15 1.15 0 00-.96-.54 1 1 0 00-.87.47 4.1 4.1 0 00-.43 2.23zM92.22 75.6h-.81v-5.14c-.23.22-.49.4-.77.55-.26.17-.55.31-.84.43v-.78c.43-.2.83-.47 1.19-.78.29-.24.53-.54.7-.88h.53v6.6zM95.9 72.37c-.02-.64.06-1.28.23-1.9.13-.41.38-.8.7-1.09.35-.26.78-.4 1.21-.38a1.82 1.82 0 011.59.84c.18.3.32.63.4.97.11.5.16 1.03.14 1.56.03.62-.05 1.25-.23 1.85a2.4 2.4 0 01-.71 1.11 2.01 2.01 0 01-2.73-.3 4.3 4.3 0 01-.6-2.66zm.81 0a4.1 4.1 0 00.36 2.14 1.1 1.1 0 00.94.55 1.1 1.1 0 00.93-.55c.32-.67.45-1.4.39-2.14a4.2 4.2 0 00-.39-2.16 1.12 1.12 0 00-1.42-.37c-.15.08-.29.2-.38.35a4.27 4.27 0 00-.43 2.18zM102.9 72.37c-.01-.64.07-1.28.25-1.9.14-.41.38-.8.71-1.09.34-.26.77-.4 1.2-.38.32 0 .64.07.92.22.28.14.5.35.66.62.2.3.33.62.41.97a6 6 0 01.15 1.56c.02.62-.06 1.25-.23 1.85a2.4 2.4 0 01-.71 1.11c-.35.27-.77.4-1.2.39a1.76 1.76 0 01-1.5-.69 4.3 4.3 0 01-.65-2.66zm.84 0a4 4 0 00.39 2.14 1.1 1.1 0 00.92.55 1.12 1.12 0 00.95-.55c.3-.67.44-1.4.37-2.14a4.25 4.25 0 00-.37-2.16 1.14 1.14 0 00-.95-.54 1 1 0 00-.88.47 4.1 4.1 0 00-.43 2.23zM113.3 75.6h-.82v-5.14c-.23.22-.49.4-.77.55-.27.17-.55.31-.84.43v-.78c.42-.2.82-.47 1.19-.78.29-.24.53-.54.7-.88h.54v6.6zM64.13 86.64h-.8v-5.16a4.64 4.64 0 01-1.63.98v-.78c.43-.2.83-.46 1.2-.77.28-.25.53-.54.72-.87h.51v6.6zM67.7 83.4c-.01-.63.06-1.27.24-1.87.12-.43.37-.8.7-1.1.35-.26.78-.4 1.2-.38.33 0 .65.06.94.2.27.15.5.36.66.62.18.3.32.64.4.98.11.51.16 1.03.14 1.55a5.9 5.9 0 01-.23 1.87c-.12.43-.37.8-.71 1.1a1.8 1.8 0 01-1.2.4 1.83 1.83 0 01-1.48-.64 4.4 4.4 0 01-.66-2.73zm.84 0c-.07.74.06 1.48.37 2.16a1.12 1.12 0 00.94.53 1.1 1.1 0 00.93-.53c.5-1.4.5-2.93 0-4.32a1.1 1.1 0 00-1.45-.41c-.16.08-.29.2-.38.35a4.2 4.2 0 00-.41 2.22zM77.93 86.64h-.8v-5.16a4.64 4.64 0 01-1.62.98v-.78c.43-.2.82-.46 1.18-.77.29-.25.53-.54.72-.87h.52v6.6zM81.55 83.4c-.01-.63.06-1.27.23-1.87.14-.43.39-.8.73-1.1.34-.26.76-.4 1.19-.38.32 0 .64.06.93.2.27.15.5.36.66.62.19.3.33.63.4.98.12.51.17 1.03.16 1.55.02.63-.07 1.26-.25 1.87-.12.43-.37.8-.71 1.1a1.8 1.8 0 01-1.2.4 1.79 1.79 0 01-1.48-.7 4.3 4.3 0 01-.66-2.67zm.84 0c-.07.74.06 1.48.37 2.16a1.15 1.15 0 00.94.53 1.1 1.1 0 00.93-.53c.5-1.4.5-2.93 0-4.32a1.1 1.1 0 00-1.45-.41c-.16.08-.29.2-.38.35a4.2 4.2 0 00-.41 2.22zM91.83 86.64h-.8v-5.16c-.24.22-.51.4-.8.55-.27.16-.55.3-.84.41v-.78a4.49 4.49 0 001.9-1.64h.52l.02 6.62zM95.4 83.4c0-.64.1-1.28.3-1.89.13-.42.37-.8.71-1.1.34-.26.76-.4 1.2-.37.32-.01.63.06.92.2.27.15.5.36.66.62.2.3.33.63.41.98.1.51.13 1.04.1 1.56.01.63-.07 1.26-.25 1.87-.13.43-.37.8-.71 1.1a1.8 1.8 0 01-1.2.4 1.79 1.79 0 01-1.48-.7 4.3 4.3 0 01-.66-2.67zm.84 0a4.1 4.1 0 00.38 2.16 1.08 1.08 0 001.86 0c.5-1.4.5-2.93 0-4.32a1.1 1.1 0 00-1.45-.41c-.16.08-.29.2-.38.35a4.2 4.2 0 00-.41 2.22zM105.68 86.64h-.8v-5.16a5.2 5.2 0 01-1.61.97v-.77c.43-.2.83-.46 1.18-.77.29-.25.53-.54.71-.87h.52v6.6zM112.61 86.64h-.8v-5.16a4.6 4.6 0 01-1.63.98v-.78c.43-.2.83-.46 1.2-.77.28-.25.53-.54.72-.87h.52v6.6zM64.13 97.66h-.8v-5.14c-.24.2-.5.39-.77.54-.27.17-.56.32-.86.43v-.78c.43-.2.83-.47 1.2-.78.28-.24.53-.54.72-.88h.51v6.6zM67.8 94.42c-.02-.64.06-1.28.23-1.89.14-.42.39-.8.73-1.1.33-.26.76-.4 1.19-.38.32 0 .64.07.92.22.27.15.5.36.66.62.2.3.33.62.41.97.11.51.16 1.03.15 1.56.02.63-.06 1.25-.24 1.86a2.3 2.3 0 01-.72 1.1 2.01 2.01 0 01-2.73-.3 4.39 4.39 0 01-.6-2.66zm.83 0c-.07.73.06 1.47.37 2.14a1.12 1.12 0 00.95.55 1.1 1.1 0 00.92-.55 4 4 0 00.39-2.14 4.1 4.1 0 00-.39-2.16 1.1 1.1 0 00-1.44-.42c-.16.08-.3.2-.39.35a4.3 4.3 0 00-.4 2.23zM74.83 94.42a6 6 0 01.23-1.89c.13-.42.38-.8.7-1.1.35-.26.77-.4 1.2-.38a1.83 1.83 0 011.6.84c.18.3.31.63.4.97.11.51.16 1.03.15 1.56.01.63-.07 1.25-.24 1.86a2.4 2.4 0 01-.7 1.1c-.35.27-.78.4-1.21.39a1.8 1.8 0 01-1.5-.7 4.3 4.3 0 01-.63-2.65zm.82 0a4.1 4.1 0 00.38 2.14 1.1 1.1 0 00.93.55 1.1 1.1 0 00.94-.55 4.1 4.1 0 00.38-2.14 4.2 4.2 0 00-.35-2.16 1.15 1.15 0 00-.94-.54 1.03 1.03 0 00-.9.47 4.1 4.1 0 00-.44 2.23zM85.2 97.66h-.8v-5.14c-.24.2-.5.39-.77.54-.27.17-.56.32-.86.43v-.78c.43-.2.83-.46 1.19-.78.3-.24.54-.54.72-.88h.52v6.6zM88.87 94.42c-.02-.64.06-1.28.24-1.89.13-.42.38-.8.71-1.1.34-.26.76-.4 1.2-.38.32 0 .64.07.92.22.27.15.5.36.66.62.2.3.33.62.41.97.11.51.16 1.03.15 1.56.04.62-.03 1.25-.2 1.86a2.3 2.3 0 01-.7 1.1c-.34.27-.76.4-1.2.39a1.75 1.75 0 01-1.48-.69 4.3 4.3 0 01-.71-2.66zm.83 0c-.07.73.06 1.47.37 2.14a1.12 1.12 0 00.94.55 1.1 1.1 0 00.93-.55 4 4 0 00.39-2.14 4.1 4.1 0 00-.39-2.16 1.1 1.1 0 00-1.45-.42c-.15.08-.28.2-.38.35a4.3 4.3 0 00-.4 2.23zM95.9 94.42c-.02-.64.06-1.28.23-1.89.13-.42.38-.8.7-1.1.35-.26.78-.4 1.21-.38a1.82 1.82 0 011.59.84c.18.3.32.63.4.97.11.51.16 1.03.14 1.56.03.63-.05 1.25-.23 1.86a2.4 2.4 0 01-.71 1.1 2 2 0 01-2.73-.3 4.3 4.3 0 01-.6-2.66zm.81 0a4.1 4.1 0 00.36 2.14 1.1 1.1 0 00.94.55 1.1 1.1 0 00.93-.55 4.1 4.1 0 00.39-2.14 4.2 4.2 0 00-.39-2.16 1.12 1.12 0 00-1.45-.42c-.15.08-.28.2-.38.35-.33.7-.47 1.46-.4 2.23zM102.9 94.42c-.01-.64.07-1.28.25-1.89.14-.42.38-.8.71-1.1.34-.26.77-.4 1.2-.38.32 0 .64.07.92.22.28.14.5.35.66.62.2.3.33.62.41.97a6 6 0 01.15 1.56c.02.63-.06 1.25-.23 1.86a2.4 2.4 0 01-.71 1.1c-.35.27-.77.4-1.2.39a1.76 1.76 0 01-1.5-.69 4.3 4.3 0 01-.65-2.66zm.84 0a4 4 0 00.39 2.14 1.09 1.09 0 00.92.55 1.12 1.12 0 00.95-.55c.3-.67.44-1.4.37-2.14a4.25 4.25 0 00-.37-2.16 1.14 1.14 0 00-.95-.54 1 1 0 00-.88.47 4.1 4.1 0 00-.43 2.23zM113.3 97.66h-.82v-5.14c-.23.21-.49.4-.77.54-.27.17-.55.31-.84.43v-.78c.42-.2.82-.47 1.19-.78.29-.24.53-.54.7-.88h.54v6.6z" fill="#E1E6E9"/><path d="M88.47 64.78a13.13 13.13 0 100 26.25 13.13 13.13 0 000-26.25z" fill="#FFDA45"/><path d="M87.5 82.99l-4.77-4.77 1.94-1.93 2.83 2.83 5.95-5.95 1.94 1.93-7.89 7.89z" fill="#309"/></svg>