<svg width="175" height="175" fill="none" xmlns="http://www.w3.org/2000/svg"><path d="M87.5 0C39.25 0 0 39.25 0 87.5S39.25 175 87.5 175 175 135.75 175 87.5 135.75 0 87.5 0z" fill="#FFDA45"/><path d="M94.8 131.25a7.3 7.3 0 11-14.6 0 7.3 7.3 0 0114.6 0zM99.04 92.18a7.32 7.32 0 00-4.25 6.63v3.27a7.29 7.29 0 11-14.58 0v-3.27c0-8.51 5-16.31 12.72-19.88 7.43-3.42 12.8-12.5 12.8-16.95A18.25 18.25 0 0087.5 43.75a18.25 18.25 0 00-18.23 18.23 7.3 7.3 0 11-14.58 0A32.85 32.85 0 0187.5 29.17a32.85 32.85 0 0132.81 32.8c0 9.86-8.54 24.34-21.27 30.21z" fill="#309"/></svg>