<svg width="175" height="175" fill="none" xmlns="http://www.w3.org/2000/svg"><path d="M175 87.5a87.38 87.38 0 01-35.45 70.34A87.15 87.15 0 0187.5 175a87.09 87.09 0 01-52.05-17.16A87.5 87.5 0 11175 87.5z" fill="#FFDA45"/><path d="M139.64 136.77c-.41-2.76-.95-5.6-1.63-8.5-.59-2.54-1.28-5.13-2.06-7.77a169.63 169.63 0 00-8.05-21.39 199.46 199.46 0 00-9.26-17.98 202.7 202.7 0 00-10.94-17 168.87 168.87 0 00-14.5-17.67c-1.89-2-3.79-3.89-5.7-5.67a106.43 106.43 0 00-6.54-5.66c-14.25-11.3-27-14.7-35.92-9.56-8.92 5.15-12.35 17.9-9.68 35.9.4 2.74.95 5.58 1.63 8.48a126.7 126.7 0 002.06 7.78A168.94 168.94 0 0047.1 99.1a211.92 211.92 0 0020.2 34.99 168.72 168.72 0 0014.5 17.67 129 129 0 005.7 5.67c2.18 2.04 4.36 3.92 6.54 5.66 5.24 4.16 10.27 7.25 15 9.23a87.12 87.12 0 0030.51-14.49c1.26-5.79 1.3-12.89.09-21.07zm-8.02 19.77c-1.04 4.5-2.95 7.57-5.68 9.15-2.73 1.58-6.35 1.7-10.77.35-4.77-1.46-10.35-4.65-16.13-9.24a101.26 101.26 0 01-5.84-5.03c-1.9-1.77-3.81-3.66-5.7-5.67-3.25-3.44-6.47-7.2-9.6-11.24-2.1-2.7-4.16-5.51-6.17-8.44a198.6 198.6 0 01-15.76-27.3c-1.53-3.2-2.94-6.4-4.23-9.56-1.93-4.74-3.58-9.4-4.94-13.94a121.6 121.6 0 01-2.05-7.77 98.94 98.94 0 01-1.44-7.57c-1.08-7.3-1.06-13.73.07-18.6 1.04-4.49 2.95-7.57 5.68-9.14a10.2 10.2 0 015.18-1.28c1.69 0 3.55.31 5.58.93 4.78 1.46 10.36 4.66 16.14 9.24a97.63 97.63 0 015.83 5.03c1.91 1.77 3.82 3.67 5.7 5.67a152.3 152.3 0 019.61 11.24c2.1 2.7 4.16 5.52 6.17 8.44a200.48 200.48 0 0119.98 36.87c1.94 4.73 3.59 9.4 4.94 13.93a124 124 0 012.06 7.77 101.3 101.3 0 011.43 7.57c1.09 7.3 1.06 13.73-.06 18.6z" fill="#309"/><path d="M146.18 72.79a109.88 109.88 0 00-8.17-2.84c-2.5-.76-5.1-1.46-7.77-2.1a169.07 169.07 0 00-22.54-3.72 208.1 208.1 0 00-40.4 0 169 169 0 00-22.55 3.72c-2.67.64-5.26 1.34-7.76 2.1-2.85.87-5.58 1.82-8.17 2.84C11.9 79.47 2.58 88.82 2.58 99.1c0 10.3 9.32 19.65 26.24 26.33 2.59 1.02 5.31 1.97 8.16 2.84 2.5.76 5.1 1.47 7.77 2.1 7.02 1.68 14.6 2.93 22.55 3.72a202.03 202.03 0 0020.2.98 208.41 208.41 0 0020.2-.98c7.94-.79 15.52-2.04 22.55-3.72 2.67-.64 5.26-1.34 7.76-2.1 2.85-.87 5.58-1.82 8.17-2.84 16.92-6.68 26.24-16.03 26.24-26.33 0-10.3-9.32-19.64-26.24-26.32zm13.11 35.82c-3.65 3.4-9.2 6.64-16.06 9.35a99.74 99.74 0 01-7.28 2.54c-2.49.77-5.08 1.47-7.76 2.1-4.6 1.1-9.47 2-14.54 2.7a197.83 197.83 0 01-26.15 1.74c-5.36 0-10.64-.21-15.77-.62-3.54-.28-7-.65-10.39-1.12-5.07-.7-9.93-1.6-14.54-2.7-2.68-.63-5.26-1.33-7.75-2.1-2.54-.78-4.97-1.63-7.28-2.54-6.86-2.71-12.42-5.94-16.07-9.35-3.37-3.15-5.08-6.34-5.08-9.5 0-3.15 1.71-6.34 5.08-9.49 3.65-3.4 9.21-6.64 16.07-9.35a99.6 99.6 0 017.28-2.54c2.49-.77 5.07-1.47 7.75-2.1 4.6-1.1 9.47-2 14.54-2.7 3.38-.47 6.85-.84 10.4-1.12a199.72 199.72 0 0141.91 1.12c5.07.7 9.94 1.6 14.54 2.7 2.68.63 5.27 1.33 7.76 2.1 2.54.78 4.96 1.63 7.28 2.54 6.86 2.7 12.41 5.94 16.06 9.35 3.37 3.15 5.09 6.34 5.09 9.5 0 3.15-1.72 6.34-5.09 9.49z" fill="#309"/><path d="M129.96 25.57c-8.92-5.14-21.67-1.75-35.92 9.56a107.5 107.5 0 00-6.54 5.66 129.15 129.15 0 00-5.7 5.67 169.24 169.24 0 00-14.5 17.67 199.03 199.03 0 00-10.95 17 212.73 212.73 0 00-9.25 17.98c-3.29 7.28-6 14.47-8.05 21.39-.79 2.64-1.48 5.23-2.07 7.78-.67 2.9-1.22 5.73-1.62 8.49-1.22 8.18-1.17 15.28.09 21.07a87.08 87.08 0 0030.51 14.49c4.72-1.98 9.76-5.07 15-9.23 2.18-1.74 4.37-3.63 6.54-5.66 1.91-1.78 3.82-3.67 5.7-5.67a169.36 169.36 0 0014.5-17.67 199.7 199.7 0 0010.94-17 206.26 206.26 0 009.26-17.99c3.28-7.26 6-14.46 8.05-21.38.78-2.64 1.47-5.23 2.06-7.78.68-2.9 1.22-5.74 1.63-8.49 2.67-18-.76-30.74-9.68-35.89zm-1.77 50.05c-1.35 4.53-3 9.2-4.94 13.93-1.28 3.16-2.7 6.36-4.22 9.56a201.55 201.55 0 01-15.76 27.3 181.75 181.75 0 01-6.17 8.45c-3.14 4.04-6.35 7.8-9.6 11.24-1.9 2-3.8 3.9-5.7 5.67a98.83 98.83 0 01-5.84 5.03c-5.78 4.58-11.36 7.78-16.14 9.24-4.4 1.34-8.03 1.23-10.76-.35-2.73-1.58-4.64-4.66-5.68-9.15-1.13-4.87-1.15-11.3-.07-18.59.37-2.45.85-4.98 1.44-7.57.58-2.54 1.27-5.13 2.05-7.77 1.36-4.53 3.01-9.2 4.94-13.94a198.27 198.27 0 0111.57-23.52A198.76 198.76 0 0177.9 63.37c3.14-4.04 6.36-7.8 9.6-11.24 1.9-2 3.8-3.9 5.71-5.67 1.95-1.8 3.9-3.48 5.84-5.03 5.78-4.58 11.36-7.78 16.13-9.24a19.2 19.2 0 015.58-.93c1.98 0 3.71.43 5.19 1.28 2.73 1.57 4.64 4.65 5.68 9.15 1.12 4.86 1.15 11.3.06 18.59a99.29 99.29 0 01-1.44 7.57c-.57 2.54-1.26 5.13-2.05 7.77z" fill="#309"/><path d="M87.5 115.08a15.96 15.96 0 100-31.93 15.96 15.96 0 000 31.92z" fill="#309"/></svg>