<svg width="55" height="55" fill="none" xmlns="http://www.w3.org/2000/svg"><g clip-path="url(#clip0)" fill="#FFDA45"><path d="M36.3 38.55l2.51-4.09 4.54-1.54.5-4.77 3.42-3.36-1.62-4.52 1.62-4.5-3.42-3.37-.5-4.77-4.54-1.54L36.3 2l-4.76.58L27.5 0l-4.04 2.58L18.7 2 16.2 6.1l-4.54 1.54-.5 4.77-3.42 3.36 1.62 4.52-1.62 4.5 3.41 3.37.5 4.77 4.55 1.54 2.51 4.09 4.76-.58 4.04 2.58 4.04-2.58 4.76.58zM13.6 20.28c0-7.67 6.23-13.9 13.9-13.9s13.9 6.23 13.9 13.9c0 7.66-6.23 13.9-13.9 13.9s-13.9-6.24-13.9-13.9z"/><path d="M27.5 9.6a10.7 10.7 0 000 21.35 10.7 10.7 0 000-21.35zM22.7 41.31l-5.66.68-3-4.85-1-.34-4.4 13.7 7.9-.43L22.72 55l3.63-11.36-3.65-2.33zM40.95 37.14L37.96 42l-5.66-.68-3.65 2.33L32.28 55l6.18-4.93 7.9.43-4.4-13.7-1 .34z"/></g><defs><clipPath id="clip0"><path fill="#fff" d="M0 0h55v55H0z"/></clipPath></defs></svg>